<svg width="160" height="35" viewBox="0 0 160 35" fill="none" xmlns="http://www.w3.org/2000/svg">
<mask id="mask0_4_42" style="mask-type:alpha" maskUnits="userSpaceOnUse" x="0" y="0" width="115" height="33">
<path d="M6.76569 0.580387C4.44134 1.55302 1.88549 4.29792 1.07878 7.75045C0.055281 12.1211 4.31046 13.9668 4.65813 13.3646C5.06722 12.6504 3.89321 12.4107 3.65347 10.1444C3.34501 7.21385 4.70397 3.93964 6.41881 2.50294C6.73869 2.24032 6.72316 2.61094 6.72316 3.29413C6.72316 4.52625 6.65444 15.5499 6.65444 17.8513C6.65444 20.9668 6.52681 21.9478 6.29118 22.9164C6.05961 23.9015 5.68494 24.5658 5.9672 24.8244C6.28707 25.1099 7.64603 24.43 8.4339 23.3304C9.3764 22.0132 9.70854 20.4301 9.76991 18.712C9.83943 16.6429 9.83538 13.3532 9.83943 11.4804C9.83943 9.75823 9.86643 4.7234 9.81243 1.69218C9.7969 0.951006 7.73518 0.174548 6.76569 0.580387ZM113.928 16.9359C113.596 16.9359 113.438 17.2836 113.311 17.8669C112.871 19.9016 112.407 20.3606 111.809 20.3606C111.141 20.3606 110.542 19.3535 110.384 17.3376C110.265 15.7545 110.284 12.8353 110.438 9.93176C110.469 9.33699 110.306 8.74707 108.708 8.16377C108.017 7.91667 107.017 7.54605 106.519 8.75038C105.11 12.1449 104.561 14.8472 104.43 15.9402C104.427 15.9974 104.357 16.0057 104.345 15.8747C104.265 14.9977 104.079 13.4031 104.056 10.0512C104.048 9.40326 103.913 8.84279 103.187 8.38712C102.72 8.09419 101.299 7.56894 100.785 8.19077C100.345 8.70043 99.8318 10.0675 99.2951 11.6891C98.8623 13.0096 98.5613 13.9055 98.5613 13.9055C98.5613 13.9055 98.5643 10.3449 98.5727 8.99337C98.5727 8.48364 98.225 8.31429 98.1211 8.28318C97.6458 8.14414 96.7074 7.91667 96.3139 7.91667C95.8238 7.91667 95.7076 8.19077 95.7076 8.58839C95.7076 8.63827 95.6266 13.2714 95.6266 16.5113V16.9669C95.3599 18.4576 94.4804 20.4809 93.5264 20.4809C92.5725 20.4809 92.1209 19.6349 92.1209 15.7741C92.1209 13.5226 92.1904 12.5425 92.2215 10.9127C92.2403 9.97428 92.2787 9.25268 92.2755 9.08664C92.2673 8.58839 91.3984 8.33313 90.9967 8.24066C90.5917 8.14414 90.24 8.11303 89.9626 8.1245C89.5765 8.14819 89.3024 8.40265 89.3024 8.75854V9.29851C88.8041 8.51144 87.9966 7.96251 87.4566 7.80457C86.0126 7.3759 84.5023 7.75793 83.3635 9.3484C82.4602 10.6157 81.9153 12.0475 81.7035 14.1059C81.5447 15.6121 81.5955 17.1372 81.8769 18.4265C81.5374 19.882 80.9115 20.4809 80.2283 20.4809C79.2319 20.4809 78.5144 18.8585 78.5954 16.0514C78.6535 14.2066 79.02 12.9131 79.425 11.0362C79.5992 10.2369 79.4561 9.82051 79.105 9.41467C78.7844 9.05142 78.0971 8.86242 77.1129 9.08989C76.4134 9.25599 75.4062 9.43351 74.4907 9.5693C74.4907 9.5693 74.5447 9.3484 74.5913 8.95901C74.827 6.91606 72.6066 7.08217 71.8997 7.73504C71.4751 8.1245 71.1854 8.58428 71.0775 9.41062C70.904 10.7237 71.9733 11.3414 71.9733 11.3414C71.6223 12.9475 70.7649 15.0476 69.8731 16.5653C69.3978 17.3801 69.0345 17.979 68.5641 18.6196C68.5598 18.384 68.5598 18.1443 68.5598 17.9094C68.5517 14.5306 68.5942 11.8708 68.6138 10.9127C68.6335 9.97428 68.6719 9.27152 68.6719 9.10541C68.6638 8.74216 68.4518 8.5998 68.0035 8.42965C67.61 8.27582 67.1428 8.16377 66.6601 8.1245C66.0539 8.07866 65.6832 8.40265 65.6947 8.78474V9.29851C65.1932 8.51144 64.3856 7.96251 63.853 7.80457C62.4049 7.3759 60.8954 7.75793 59.7566 9.3484C58.8567 10.6157 58.2618 12.3878 58.0917 14.0863C57.9379 15.6776 57.9649 17.0209 58.1808 18.1565C57.9493 19.2913 57.2891 20.4809 56.5405 20.4809C55.5865 20.4809 55.0416 19.6349 55.0416 15.7741C55.0416 13.5226 55.1112 12.5425 55.1464 10.9127C55.1652 9.97428 55.2004 9.25268 55.1963 9.08664C55.1922 8.58839 54.3241 8.33313 53.9184 8.24066C53.4978 8.14082 53.1305 8.10977 52.8523 8.1245C52.4817 8.15555 52.2232 8.48364 52.2232 8.73479V9.29851C51.7217 8.51144 50.9142 7.96251 50.3774 7.80457C48.9334 7.3759 47.4354 7.76615 46.2884 9.3484C45.5398 10.3801 44.9335 11.5263 44.621 14.0675C44.5359 14.8013 44.4934 15.4878 44.4974 16.1292C44.1996 17.9512 42.8833 20.0522 41.8098 20.0522C41.1766 20.0522 40.5744 18.8315 40.5744 16.2257C40.5744 12.7585 40.7904 7.81604 40.8289 7.33743C40.8289 7.33743 42.1878 7.31368 42.4545 7.31043C43.1303 7.30632 43.748 7.3219 44.648 7.27527C45.1037 7.25238 45.5397 5.62669 45.0685 5.42218C44.8599 5.33296 43.3619 5.25196 42.767 5.24055C42.2655 5.22907 40.8788 5.12519 40.8788 5.12519C40.8788 5.12519 41.0032 1.84687 41.0302 1.50325C41.0531 1.20952 40.6824 1.06311 40.4664 0.973893C39.9445 0.750541 39.4773 0.645859 38.9292 0.533753C38.1609 0.375872 37.8173 0.530501 37.7519 1.17436C37.6512 2.15202 37.5972 5.01719 37.5972 5.01719C37.0335 5.01719 35.1224 4.90429 34.5619 4.90429C34.0416 4.90429 33.477 7.14432 34.1995 7.17132C35.0299 7.20243 36.4698 7.23354 37.4271 7.25968C37.4271 7.25968 37.3845 12.2839 37.3845 13.8318V14.3105C36.856 17.0553 35.0061 18.5386 35.0061 18.5386C35.4038 16.7199 34.593 15.3568 33.1261 14.2066C32.5853 13.7778 31.5201 12.9703 30.3264 12.0941C30.3264 12.0941 31.0177 11.411 31.6313 10.0439C32.0641 9.07436 32.0838 7.95919 31.0177 7.71541C29.2571 7.31043 27.809 8.60391 27.3729 9.98575C27.0407 11.0518 27.215 11.847 27.8744 12.6692L28.025 12.855C27.6314 13.6191 27.0833 14.65 26.6235 15.4493C25.3382 17.6698 24.3687 19.423 23.6389 19.423C23.0523 19.423 23.0596 17.6428 23.0596 15.9746C23.0596 14.5379 23.1676 12.3723 23.2528 10.133C23.2797 9.39503 22.9091 8.97042 22.2882 8.58839C21.9093 8.35681 21.1059 7.90115 20.6388 7.90115C19.9442 7.90115 17.9282 7.99356 16.0253 13.4956C15.7855 14.191 15.3143 15.4534 15.3143 15.4534L15.3569 8.83543C15.3569 8.6808 15.2759 8.53439 15.0869 8.42965C14.7661 8.25618 13.9054 7.90115 13.1487 7.90115C12.7813 7.90115 12.5997 8.0713 12.5997 8.40676L12.5383 18.7546C12.5383 19.5425 12.5572 20.4612 12.6349 20.863C12.7118 21.2646 12.8394 21.5927 12.994 21.7891C13.1487 21.9789 13.3295 22.1254 13.6232 22.1908C13.8973 22.2489 15.4067 22.4379 15.4845 21.8627C15.581 21.1714 15.5843 20.4269 16.3762 17.6354C17.6116 13.2951 19.2185 11.1794 19.9752 10.4259C20.1102 10.295 20.2608 10.2869 20.2526 10.5036C20.2182 11.4568 20.1062 13.8318 20.0292 15.851C19.8247 21.2606 20.8048 22.2603 22.2145 22.2603C23.2879 22.2603 24.8015 21.191 26.4271 18.4887C27.4425 16.8009 28.4234 15.1523 29.1336 13.9595C29.6203 14.4143 30.1758 14.9052 30.7281 15.4305C32.0142 16.6463 32.4348 17.8048 32.1533 18.9019C31.9406 19.7429 31.1339 20.6077 29.7013 19.7666C29.2841 19.5229 29.1066 19.3339 28.686 19.0557C28.4618 18.9051 28.1141 18.8626 27.9096 19.0172C27.3688 19.423 27.0636 19.936 26.8861 20.5734C26.72 21.1951 27.3418 21.5191 27.9865 21.8046C28.5387 22.0558 29.7283 22.2759 30.4884 22.3029C33.45 22.4035 35.821 20.8744 37.4696 16.9359C37.7674 20.3377 39.0216 22.2645 41.2036 22.2645C42.6664 22.2645 44.1301 20.3761 44.7715 18.519C44.9523 19.2758 45.2264 19.9319 45.5782 20.4924C47.262 23.1562 50.5279 22.5851 52.165 20.3221C52.6748 19.6194 52.7525 19.3682 52.7525 19.3682C52.9914 21.5044 54.7136 22.2562 55.6986 22.2562C56.8064 22.2562 57.942 21.7318 58.7405 19.9319C58.837 20.1291 58.9377 20.3148 59.0538 20.4924C60.7335 23.1562 63.9995 22.5851 65.6407 20.3221C65.7143 20.2101 65.7839 20.1176 65.8411 20.0285L65.8919 21.434C65.8919 21.434 64.9535 22.2915 64.3783 22.82C61.8494 25.141 59.926 26.9017 59.7836 28.9479C59.6061 31.5618 61.7218 32.5313 63.3278 32.6581C65.0271 32.794 66.4867 31.8555 67.3817 30.535C68.1696 29.3765 68.6875 26.8861 68.649 24.4227C68.6335 23.4344 68.6098 22.1835 68.5868 20.836C69.4786 19.8092 70.4825 18.5034 71.4021 16.9752C72.4092 15.3143 73.4826 13.0783 74.0307 11.3373C74.0307 11.3373 74.9692 11.3455 75.9657 11.2833C76.2864 11.2637 76.3788 11.33 76.3167 11.5615C76.2471 11.843 75.0584 16.4343 76.1432 19.4926C76.8886 21.5846 78.56 22.2603 79.5565 22.2603C80.7183 22.2603 81.8309 21.38 82.4249 20.0751C82.4985 20.2183 82.5721 20.3606 82.6572 20.4924C84.3369 23.1562 87.5915 22.5811 89.2441 20.3221C89.6188 19.8092 89.8274 19.3682 89.8274 19.3682C90.1825 21.5813 91.9047 22.2645 92.889 22.2645C93.9198 22.2645 94.8926 21.8439 95.6846 19.9745C95.7157 20.7975 95.7656 21.4692 95.8506 21.6811C95.9005 21.8128 96.1942 21.9748 96.4028 22.0558C97.3446 22.4035 98.3026 22.2375 98.6536 22.1638C98.9007 22.1139 99.0938 21.9208 99.1174 21.4111C99.1862 20.0751 99.1436 17.8318 99.5494 16.1603C100.233 13.3647 100.866 12.2798 101.167 11.7431C101.334 11.4412 101.526 11.3913 101.53 11.708C101.542 12.3526 101.577 14.245 101.843 16.7935C102.033 18.6622 102.291 19.7699 102.491 20.1217C103.055 21.1215 103.758 21.1681 104.326 21.1681C104.689 21.1681 105.446 21.0675 105.38 20.4301C105.345 20.1217 105.403 18.2024 106.071 15.4461C106.511 13.6429 107.241 12.0172 107.503 11.4224C107.604 11.2024 107.647 11.3725 107.647 11.4069C107.588 12.6464 107.465 16.7043 107.967 18.9207C108.655 21.929 110.634 22.2645 111.326 22.2645C112.797 22.2645 114.006 21.1444 114.411 18.195C114.512 17.484 114.364 16.9359 113.928 16.9359ZM52.192 15.1138C52.1111 16.6732 51.8058 17.979 51.3199 18.9247C50.4314 20.6428 48.683 21.1836 47.914 18.7087C47.3544 16.9211 47.5434 14.4805 47.779 13.1634C48.1185 11.2097 48.98 9.82781 50.3234 9.95458C51.6978 10.0904 52.3696 11.8625 52.192 15.1138ZM65.6637 15.1367C65.5868 16.6077 65.2047 18.0902 64.7875 18.9247C63.9268 20.6543 62.1269 21.1951 61.3815 18.7087C60.8727 17.0054 60.9921 14.8086 61.2466 13.426C61.5754 11.6269 62.3666 9.95458 63.7918 9.95458C65.1777 9.95458 65.8609 11.4763 65.6637 15.1367ZM66.0155 25.1909C65.9959 27.8826 65.5754 30.238 64.6713 30.9252C63.3819 31.898 61.6483 31.1642 62.0074 29.2031C62.324 27.4653 63.8262 25.6932 66.0196 23.5268C66.0196 23.5268 66.0272 24.0209 66.0155 25.1909ZM89.2753 15.1523C89.1976 16.7705 88.8384 18.033 88.395 18.9247C87.5335 20.6543 85.7499 21.191 84.989 18.7087C84.5759 17.3531 84.5562 15.0901 84.854 13.2026C85.1551 11.2792 86.0011 9.82781 87.3985 9.95458C88.7803 10.0863 89.4258 11.8625 89.2753 15.1523Z" fill="#231E1F"/>
</mask>
<g mask="url(#mask0_4_42)">
<rect x="0.920307" y="-1.99097" width="56.8173" height="30.6223" fill="black"/>
</g>
<mask id="mask1_4_42" style="mask-type:alpha" maskUnits="userSpaceOnUse" x="45" y="0" width="115" height="33">
<path d="M51.7768 0.580387C49.4525 1.55302 46.8966 4.29792 46.0899 7.75045C45.0664 12.1211 49.3216 13.9668 49.6693 13.3646C50.0784 12.6504 48.9043 12.4107 48.6646 10.1444C48.3561 7.21385 49.7151 3.93964 51.4299 2.50294C51.7498 2.24032 51.7343 2.61094 51.7343 3.29413C51.7343 4.52625 51.6656 15.5499 51.6656 17.8513C51.6656 20.9668 51.5379 21.9478 51.3023 22.9164C51.0707 23.9015 50.6961 24.5658 50.9783 24.8244C51.2982 25.1099 52.6572 24.43 53.445 23.3304C54.3875 22.0132 54.7197 20.4301 54.781 18.712C54.8506 16.6429 54.8465 13.3532 54.8506 11.4804C54.8506 9.75823 54.8776 4.7234 54.8236 1.69218C54.808 0.951006 52.7463 0.174548 51.7768 0.580387ZM158.94 16.9359C158.607 16.9359 158.449 17.2836 158.322 17.8669C157.882 19.9016 157.419 20.3606 156.82 20.3606C156.152 20.3606 155.553 19.3535 155.395 17.3376C155.276 15.7545 155.295 12.8353 155.449 9.93176C155.48 9.33699 155.318 8.74707 153.719 8.16377C153.028 7.91667 152.028 7.54605 151.53 8.75038C150.121 12.1449 149.573 14.8472 149.441 15.9402C149.438 15.9974 149.368 16.0057 149.356 15.8747C149.276 14.9977 149.09 13.4031 149.067 10.0512C149.059 9.40326 148.924 8.84279 148.198 8.38712C147.731 8.09419 146.31 7.56894 145.796 8.19077C145.356 8.70043 144.843 10.0675 144.306 11.6891C143.873 13.0096 143.572 13.9055 143.572 13.9055C143.572 13.9055 143.575 10.3449 143.584 8.99337C143.584 8.48364 143.236 8.31429 143.132 8.28318C142.657 8.14414 141.719 7.91667 141.325 7.91667C140.835 7.91667 140.719 8.19077 140.719 8.58839C140.719 8.63827 140.638 13.2714 140.638 16.5113V16.9669C140.371 18.4576 139.492 20.4809 138.538 20.4809C137.584 20.4809 137.132 19.6349 137.132 15.7741C137.132 13.5226 137.202 12.5425 137.233 10.9127C137.251 9.97428 137.29 9.25268 137.287 9.08664C137.278 8.58839 136.41 8.33313 136.008 8.24066C135.603 8.14414 135.251 8.11303 134.974 8.1245C134.588 8.14819 134.314 8.40265 134.314 8.75854V9.29851C133.815 8.51144 133.008 7.96251 132.468 7.80457C131.024 7.3759 129.513 7.75793 128.375 9.3484C127.471 10.6157 126.926 12.0475 126.715 14.1059C126.556 15.6121 126.607 17.1372 126.888 18.4265C126.548 19.882 125.923 20.4809 125.239 20.4809C124.243 20.4809 123.525 18.8585 123.606 16.0514C123.665 14.2066 124.031 12.9131 124.436 11.0362C124.61 10.2369 124.467 9.82051 124.116 9.41467C123.795 9.05142 123.108 8.86242 122.124 9.08989C121.425 9.25599 120.417 9.43351 119.502 9.5693C119.502 9.5693 119.556 9.3484 119.602 8.95901C119.838 6.91606 117.618 7.08217 116.911 7.73504C116.486 8.1245 116.197 8.58428 116.089 9.41062C115.915 10.7237 116.984 11.3414 116.984 11.3414C116.633 12.9475 115.776 15.0476 114.884 16.5653C114.409 17.3801 114.046 17.979 113.575 18.6196C113.571 18.384 113.571 18.1443 113.571 17.9094C113.563 14.5306 113.605 11.8708 113.625 10.9127C113.645 9.97428 113.683 9.27152 113.683 9.10541C113.675 8.74216 113.463 8.5998 113.015 8.42965C112.621 8.27582 112.154 8.16377 111.671 8.1245C111.065 8.07866 110.694 8.40265 110.706 8.78474V9.29851C110.204 8.51144 109.397 7.96251 108.864 7.80457C107.416 7.3759 105.907 7.75793 104.768 9.3484C103.868 10.6157 103.273 12.3878 103.103 14.0863C102.949 15.6776 102.976 17.0209 103.192 18.1565C102.96 19.2913 102.3 20.4809 101.552 20.4809C100.598 20.4809 100.053 19.6349 100.053 15.7741C100.053 13.5226 100.122 12.5425 100.158 10.9127C100.176 9.97428 100.212 9.25268 100.207 9.08664C100.203 8.58839 99.3353 8.33313 98.9295 8.24066C98.5089 8.14082 98.1416 8.10977 97.8634 8.1245C97.4928 8.15555 97.2343 8.48364 97.2343 8.73479V9.29851C96.7328 8.51144 95.9253 7.96251 95.3886 7.80457C93.9446 7.3759 92.4465 7.76615 91.2995 9.3484C90.5509 10.3801 89.9446 11.5263 89.6321 14.0675C89.547 14.8013 89.5045 15.4878 89.5085 16.1292C89.2108 17.9512 87.8944 20.0522 86.821 20.0522C86.1877 20.0522 85.5856 18.8315 85.5856 16.2257C85.5856 12.7585 85.8016 7.81604 85.84 7.33743C85.84 7.33743 87.1989 7.31368 87.4657 7.31043C88.1414 7.30632 88.7591 7.3219 89.6591 7.27527C90.1148 7.25238 90.5509 5.62669 90.0796 5.42218C89.871 5.33296 88.373 5.25196 87.7782 5.24055C87.2767 5.22907 85.8899 5.12519 85.8899 5.12519C85.8899 5.12519 86.0143 1.84687 86.0413 1.50325C86.0642 1.20952 85.6936 1.06311 85.4776 0.973893C84.9556 0.750541 84.4884 0.645859 83.9403 0.533753C83.1721 0.375872 82.8285 0.530501 82.763 1.17436C82.6624 2.15202 82.6084 5.01719 82.6084 5.01719C82.0446 5.01719 80.1335 4.90429 79.573 4.90429C79.0527 4.90429 78.4882 7.14432 79.2106 7.17132C80.041 7.20243 81.481 7.23354 82.4382 7.25968C82.4382 7.25968 82.3956 12.2839 82.3956 13.8318V14.3105C81.8671 17.0553 80.0173 18.5386 80.0173 18.5386C80.4149 16.7199 79.6041 15.3568 78.1372 14.2066C77.5964 13.7778 76.5312 12.9703 75.3375 12.0941C75.3375 12.0941 76.0288 11.411 76.6424 10.0439C77.0753 9.07436 77.0949 7.95919 76.0288 7.71541C74.2682 7.31043 72.8201 8.60391 72.384 9.98575C72.0519 11.0518 72.2261 11.847 72.8856 12.6692L73.0361 12.855C72.6426 13.6191 72.0944 14.65 71.6346 15.4493C70.3493 17.6698 69.3798 19.423 68.65 19.423C68.0634 19.423 68.0708 17.6428 68.0708 15.9746C68.0708 14.5379 68.1788 12.3723 68.2639 10.133C68.2909 9.39503 67.9203 8.97042 67.2993 8.58839C66.9205 8.35681 66.1171 7.90115 65.6499 7.90115C64.9553 7.90115 62.9394 7.99356 61.0364 13.4956C60.7967 14.191 60.3254 15.4534 60.3254 15.4534L60.368 8.83543C60.368 8.6808 60.287 8.53439 60.098 8.42965C59.7773 8.25618 58.9166 7.90115 58.1598 7.90115C57.7924 7.90115 57.6108 8.0713 57.6108 8.40676L57.5494 18.7546C57.5494 19.5425 57.5683 20.4612 57.646 20.863C57.7229 21.2646 57.8505 21.5927 58.0052 21.7891C58.1598 21.9789 58.3406 22.1254 58.6343 22.1908C58.9084 22.2489 60.4179 22.4379 60.4956 21.8627C60.5921 21.1714 60.5954 20.4269 61.3874 17.6354C62.6227 13.2951 64.2296 11.1794 64.9864 10.4259C65.1214 10.295 65.2719 10.2869 65.2637 10.5036C65.2293 11.4568 65.1173 13.8318 65.0404 15.851C64.8358 21.2606 65.816 22.2603 67.2257 22.2603C68.299 22.2603 69.8126 21.191 71.4383 18.4887C72.4536 16.8009 73.4345 15.1523 74.1447 13.9595C74.6315 14.4143 75.187 14.9052 75.7392 15.4305C77.0253 16.6463 77.4459 17.8048 77.1644 18.9019C76.9517 19.7429 76.145 20.6077 74.7125 19.7666C74.2952 19.5229 74.1177 19.3339 73.6971 19.0557C73.473 18.9051 73.1252 18.8626 72.9207 19.0172C72.38 19.423 72.0747 19.936 71.8972 20.5734C71.7311 21.1951 72.353 21.5191 72.9976 21.8046C73.5499 22.0558 74.7395 22.2759 75.4995 22.3029C78.4612 22.4035 80.8321 20.8744 82.4807 16.9359C82.7785 20.3377 84.0327 22.2645 86.2147 22.2645C87.6775 22.2645 89.1412 20.3761 89.7826 18.519C89.9635 19.2758 90.2375 19.9319 90.5894 20.4924C92.2731 23.1562 95.5391 22.5851 97.1762 20.3221C97.6859 19.6194 97.7636 19.3682 97.7636 19.3682C98.0025 21.5044 99.7247 22.2562 100.71 22.2562C101.817 22.2562 102.953 21.7318 103.752 19.9319C103.848 20.1291 103.949 20.3148 104.065 20.4924C105.745 23.1562 109.011 22.5851 110.652 20.3221C110.725 20.2101 110.795 20.1176 110.852 20.0285L110.903 21.434C110.903 21.434 109.965 22.2915 109.389 22.82C106.861 25.141 104.937 26.9017 104.795 28.9479C104.617 31.5618 106.733 32.5313 108.339 32.6581C110.038 32.794 111.498 31.8555 112.393 30.535C113.181 29.3765 113.699 26.8861 113.66 24.4227C113.645 23.4344 113.621 22.1835 113.598 20.836C114.49 19.8092 115.494 18.5034 116.413 16.9752C117.42 15.3143 118.494 13.0783 119.042 11.3373C119.042 11.3373 119.98 11.3455 120.977 11.2833C121.297 11.2637 121.39 11.33 121.328 11.5615C121.258 11.843 120.069 16.4343 121.154 19.4926C121.9 21.5846 123.571 22.2603 124.568 22.2603C125.729 22.2603 126.842 21.38 127.436 20.0751C127.51 20.2183 127.583 20.3606 127.668 20.4924C129.348 23.1562 132.603 22.5811 134.255 20.3221C134.63 19.8092 134.839 19.3682 134.839 19.3682C135.194 21.5813 136.916 22.2645 137.9 22.2645C138.931 22.2645 139.904 21.8439 140.696 19.9745C140.727 20.7975 140.777 21.4692 140.862 21.6811C140.912 21.8128 141.205 21.9748 141.414 22.0558C142.356 22.4035 143.314 22.2375 143.665 22.1638C143.912 22.1139 144.105 21.9208 144.129 21.4111C144.197 20.0751 144.155 17.8318 144.561 16.1603C145.244 13.3647 145.877 12.2798 146.178 11.7431C146.345 11.4412 146.537 11.3913 146.541 11.708C146.553 12.3526 146.588 14.245 146.854 16.7935C147.044 18.6622 147.302 19.7699 147.503 20.1217C148.066 21.1215 148.769 21.1681 149.337 21.1681C149.7 21.1681 150.457 21.0675 150.391 20.4301C150.356 20.1217 150.414 18.2024 151.082 15.4461C151.522 13.6429 152.252 12.0172 152.515 11.4224C152.615 11.2024 152.658 11.3725 152.658 11.4069C152.6 12.6464 152.476 16.7043 152.978 18.9207C153.666 21.929 155.646 22.2645 156.337 22.2645C157.808 22.2645 159.017 21.1444 159.422 18.195C159.523 17.484 159.376 16.9359 158.94 16.9359ZM97.2032 15.1138C97.1222 16.6732 96.817 17.979 96.331 18.9247C95.4425 20.6428 93.6941 21.1836 92.9251 18.7087C92.3655 16.9211 92.5545 14.4805 92.7901 13.1634C93.1296 11.2097 93.9911 9.82781 95.3345 9.95458C96.709 10.0904 97.3807 11.8625 97.2032 15.1138ZM110.675 15.1367C110.598 16.6077 110.216 18.0902 109.799 18.9247C108.938 20.6543 107.138 21.1951 106.393 18.7087C105.884 17.0054 106.003 14.8086 106.258 13.426C106.587 11.6269 107.378 9.95458 108.803 9.95458C110.189 9.95458 110.872 11.4763 110.675 15.1367ZM111.027 25.1909C111.007 27.8826 110.586 30.238 109.682 30.9252C108.393 31.898 106.659 31.1642 107.019 29.2031C107.335 27.4653 108.837 25.6932 111.031 23.5268C111.031 23.5268 111.038 24.0209 111.027 25.1909ZM134.286 15.1523C134.209 16.7705 133.85 18.033 133.406 18.9247C132.545 20.6543 130.761 21.191 130 18.7087C129.587 17.3531 129.567 15.0901 129.865 13.2026C130.166 11.2792 131.012 9.82781 132.41 9.95458C133.791 10.0863 134.437 11.8625 134.286 15.1523Z" fill="#231E1F"/>
</mask>
<g mask="url(#mask1_4_42)">
<rect x="55.278" y="4.28125" width="15.1267" height="22.9975" fill="#EA580B"/>
</g>
<mask id="mask2_4_42" style="mask-type:alpha" maskUnits="userSpaceOnUse" x="34" y="2" width="114" height="33">
<path d="M40.0936 2.67096C37.7693 3.64359 35.2134 6.3885 34.4067 9.84102C33.3832 14.2117 37.6384 16.0574 37.986 15.4552C38.3951 14.741 37.2211 14.5012 36.9814 12.235C36.6729 9.30442 38.0319 6.03022 39.7467 4.59352C40.0666 4.33089 40.0511 4.70151 40.0511 5.3847C40.0511 6.61682 39.9824 17.6405 39.9824 19.9419C39.9824 23.0574 39.8547 24.0383 39.6191 25.007C39.3875 25.9921 39.0129 26.6564 39.2951 26.9149C39.615 27.2005 40.9739 26.5206 41.7618 25.421C42.7043 24.1038 43.0365 22.5207 43.0978 20.8026C43.1673 18.7335 43.1633 15.4437 43.1673 13.571C43.1673 11.8488 43.1943 6.81398 43.1403 3.78276C43.1248 3.04158 41.0631 2.26512 40.0936 2.67096ZM147.256 19.0265C146.924 19.0265 146.766 19.3741 146.639 19.9575C146.198 21.9922 145.735 22.4512 145.137 22.4512C144.469 22.4512 143.87 21.4441 143.712 19.4281C143.593 17.845 143.612 14.9259 143.766 12.0223C143.797 11.4276 143.634 10.8376 142.036 10.2543C141.345 10.0072 140.345 9.63663 139.847 10.841C138.438 14.2354 137.889 16.9378 137.758 18.0308C137.755 18.088 137.685 18.0962 137.673 17.9653C137.592 17.0883 137.407 15.4937 137.384 12.1418C137.376 11.4938 137.241 10.9334 136.515 10.4777C136.048 10.1848 134.627 9.65952 134.113 10.2813C133.673 10.791 133.16 12.1581 132.623 13.7797C132.19 15.1002 131.889 15.9961 131.889 15.9961C131.889 15.9961 131.892 12.4355 131.901 11.0839C131.901 10.5742 131.553 10.4049 131.449 10.3738C130.974 10.2347 130.035 10.0072 129.642 10.0072C129.152 10.0072 129.036 10.2813 129.036 10.679C129.036 10.7288 128.955 15.362 128.955 18.6019V19.0575C128.688 20.5482 127.808 22.5715 126.854 22.5715C125.9 22.5715 125.449 21.7255 125.449 17.8647C125.449 15.6132 125.518 14.633 125.549 13.0033C125.568 12.0649 125.607 11.3433 125.603 11.1772C125.595 10.679 124.726 10.4237 124.325 10.3312C123.92 10.2347 123.568 10.2036 123.291 10.2151C122.904 10.2388 122.63 10.4932 122.63 10.8491V11.3891C122.132 10.602 121.325 10.0531 120.785 9.89514C119.341 9.46648 117.83 9.84851 116.691 11.439C115.788 12.7063 115.243 14.1381 115.031 16.1965C114.873 17.7027 114.923 19.2277 115.205 20.5171C114.865 21.9726 114.239 22.5715 113.556 22.5715C112.56 22.5715 111.842 20.9491 111.923 18.142C111.981 16.2971 112.348 15.0037 112.753 13.1268C112.927 12.3275 112.784 11.9111 112.433 11.5052C112.112 11.142 111.425 10.953 110.441 11.1805C109.741 11.3466 108.734 11.5241 107.819 11.6599C107.819 11.6599 107.873 11.439 107.919 11.0496C108.155 9.00664 105.934 9.17274 105.228 9.82562C104.803 10.2151 104.513 10.6749 104.405 11.5012C104.232 12.8143 105.301 13.432 105.301 13.432C104.95 15.038 104.093 17.1382 103.201 18.6559C102.726 19.4707 102.362 20.0696 101.892 20.7102C101.888 20.4746 101.888 20.2348 101.888 20C101.88 16.6211 101.922 13.9613 101.942 13.0033C101.961 12.0649 102 11.3621 102 11.196C101.992 10.8327 101.78 10.6904 101.331 10.5202C100.938 10.3664 100.471 10.2543 99.988 10.2151C99.3818 10.1692 99.0111 10.4932 99.0226 10.8753V11.3891C98.5211 10.602 97.7136 10.0531 97.1809 9.89514C95.7328 9.46648 94.2234 9.84851 93.0845 11.439C92.1846 12.7063 91.5898 14.4784 91.4196 16.1769C91.2658 17.7681 91.2928 19.1115 91.5088 20.2471C91.2772 21.3819 90.617 22.5715 89.8684 22.5715C88.9144 22.5715 88.3696 21.7255 88.3696 17.8647C88.3696 15.6132 88.4391 14.633 88.4743 13.0033C88.4931 12.0649 88.5283 11.3433 88.5242 11.1772C88.5201 10.679 87.6521 10.4237 87.2463 10.3312C86.8257 10.2314 86.4584 10.2003 86.1802 10.2151C85.8096 10.2461 85.5511 10.5742 85.5511 10.8254V11.3891C85.0496 10.602 84.2421 10.0531 83.7053 9.89514C82.2613 9.46648 80.7633 9.85673 79.6163 11.439C78.8677 12.4707 78.2614 13.6169 77.9489 16.158C77.8638 16.8919 77.8213 17.5784 77.8253 18.2198C77.5275 20.0417 76.2112 22.1427 75.1377 22.1427C74.5045 22.1427 73.9024 20.9221 73.9024 18.3163C73.9024 14.849 74.1183 9.90662 74.1568 9.428C74.1568 9.428 75.5157 9.40426 75.7824 9.401C76.4582 9.39689 77.0759 9.41248 77.9759 9.36584C78.4316 9.34296 78.8677 7.71727 78.3964 7.51275C78.1878 7.42353 76.6898 7.34254 76.095 7.33112C75.5935 7.31965 74.2067 7.21577 74.2067 7.21577C74.2067 7.21577 74.3311 3.93745 74.3581 3.59383C74.381 3.30009 74.0103 3.15369 73.7944 3.06447C73.2724 2.84112 72.8052 2.73644 72.2571 2.62433C71.4889 2.46645 71.1452 2.62108 71.0798 3.26493C70.9791 4.24259 70.9251 7.10777 70.9251 7.10777C70.3614 7.10777 68.4503 6.99487 67.8898 6.99487C67.3695 6.99487 66.8049 9.2349 67.5274 9.2619C68.3578 9.29301 69.7978 9.32412 70.755 9.35026C70.755 9.35026 70.7124 14.3745 70.7124 15.9224V16.401C70.1839 19.1459 68.3341 20.6292 68.3341 20.6292C68.7317 18.8105 67.9209 17.4474 66.454 16.2971C65.9132 15.8684 64.848 15.0609 63.6543 14.1847C63.6543 14.1847 64.3456 13.5016 64.9592 12.1344C65.3921 11.1649 65.4117 10.0498 64.3456 9.80598C62.585 9.401 61.1369 10.6945 60.7008 12.0763C60.3686 13.1423 60.5429 13.9376 61.2023 14.7598L61.3529 14.9456C60.9594 15.7097 60.4112 16.7405 59.9514 17.5399C58.6661 19.7603 57.6966 21.5136 56.9668 21.5136C56.3802 21.5136 56.3876 19.7333 56.3876 18.0651C56.3876 16.6285 56.4956 14.4628 56.5807 12.2236C56.6077 11.4856 56.237 11.061 55.6161 10.679C55.2372 10.4474 54.4338 9.99172 53.9667 9.99172C53.2721 9.99172 51.2561 10.0841 49.3532 15.5862C49.1134 16.2816 48.6422 17.544 48.6422 17.544L48.6848 10.926C48.6848 10.7714 48.6038 10.625 48.4148 10.5202C48.094 10.3468 47.2333 9.99172 46.4766 9.99172C46.1092 9.99172 45.9276 10.1619 45.9276 10.4973L45.8662 20.8452C45.8662 21.6331 45.8851 22.5518 45.9628 22.9536C46.0397 23.3552 46.1673 23.6833 46.322 23.8797C46.4766 24.0695 46.6574 24.2159 46.9511 24.2814C47.2252 24.3394 48.7347 24.5284 48.8124 23.9533C48.9089 23.262 48.9122 22.5175 49.7042 19.726C50.9395 15.3857 52.5464 13.27 53.3031 12.5165C53.4381 12.3856 53.5887 12.3774 53.5805 12.5942C53.5461 13.5473 53.4341 15.9224 53.3571 17.9416C53.1526 23.3512 54.1327 24.3509 55.5424 24.3509C56.6158 24.3509 58.1294 23.2816 59.755 20.5793C60.7704 18.8915 61.7513 17.2429 62.4615 16.05C62.9482 16.5049 63.5037 16.9958 64.056 17.521C65.3421 18.7368 65.7627 19.8953 65.4812 20.9925C65.2685 21.8335 64.4618 22.6983 63.0292 21.8572C62.612 21.6134 62.4345 21.4244 62.0139 21.1462C61.7898 20.9957 61.442 20.9532 61.2375 21.1078C60.6967 21.5136 60.3915 22.0266 60.214 22.6639C60.0479 23.2857 60.6697 23.6097 61.3144 23.8952C61.8666 24.1464 63.0562 24.3664 63.8163 24.3934C66.7779 24.4941 69.1489 22.965 70.7975 19.0265C71.0953 22.4283 72.3495 24.355 74.5315 24.355C75.9943 24.355 77.458 22.4667 78.0994 20.6096C78.2803 21.3663 78.5543 22.0225 78.9061 22.5829C80.5899 25.2468 83.8559 24.6757 85.493 22.4127C86.0027 21.71 86.0804 21.4588 86.0804 21.4588C86.3193 23.595 88.0415 24.3468 89.0265 24.3468C90.1343 24.3468 91.2699 23.8224 92.0684 22.0225C92.165 22.2197 92.2656 22.4054 92.3817 22.5829C94.0614 25.2468 97.3274 24.6757 98.9686 22.4127C99.0423 22.3007 99.1118 22.2082 99.169 22.1191L99.2198 23.5246C99.2198 23.5246 98.2814 24.382 97.7063 24.9105C95.1773 27.2316 93.2539 28.9922 93.1116 31.0384C92.934 33.6524 95.0497 34.6219 96.6558 34.7487C98.355 34.8845 99.8146 33.9461 100.71 32.6256C101.497 31.4671 102.015 28.9767 101.977 26.5133C101.961 25.5249 101.938 24.274 101.915 22.9266C102.807 21.8997 103.81 20.594 104.73 19.0657C105.737 17.4049 106.811 15.1689 107.359 13.4279C107.359 13.4279 108.297 13.4361 109.294 13.3739C109.614 13.3543 109.707 13.4206 109.645 13.6521C109.575 13.9335 108.386 18.5249 109.471 21.5831C110.216 23.6752 111.888 24.3509 112.884 24.3509C114.046 24.3509 115.159 23.4706 115.753 22.1657C115.826 22.3088 115.9 22.4512 115.985 22.5829C117.665 25.2468 120.919 24.6717 122.572 22.4127C122.947 21.8997 123.155 21.4588 123.155 21.4588C123.51 23.6718 125.233 24.355 126.217 24.355C127.248 24.355 128.22 23.9345 129.012 22.0651C129.044 22.8881 129.093 23.5598 129.179 23.7717C129.228 23.9034 129.522 24.0654 129.731 24.1464C130.672 24.4941 131.63 24.328 131.981 24.2544C132.229 24.2045 132.422 24.0114 132.445 23.5017C132.514 22.1657 132.472 19.9223 132.877 18.2509C133.561 15.4553 134.194 14.3704 134.495 13.8337C134.662 13.5318 134.854 13.4819 134.858 13.7985C134.87 14.4432 134.905 16.3356 135.171 18.8841C135.36 20.7527 135.619 21.8605 135.819 22.2123C136.383 23.2121 137.086 23.2587 137.654 23.2587C138.017 23.2587 138.774 23.1581 138.707 22.5207C138.673 22.2123 138.731 20.293 139.399 17.5366C139.839 15.7334 140.569 14.1078 140.831 13.513C140.932 13.2929 140.974 13.4631 140.974 13.4974C140.916 14.7369 140.793 18.7949 141.294 21.0112C141.982 24.0196 143.962 24.355 144.654 24.355C146.125 24.355 147.334 23.235 147.739 20.2856C147.84 19.5746 147.692 19.0265 147.256 19.0265ZM85.52 17.2044C85.439 18.7638 85.1338 20.0695 84.6478 21.0153C83.7593 22.7334 82.0109 23.2742 81.2419 20.7993C80.6823 19.0117 80.8713 16.5711 81.1069 15.254C81.4464 13.3002 82.3079 11.9184 83.6513 12.0452C85.0258 12.181 85.6975 13.9531 85.52 17.2044ZM98.9916 17.2273C98.9147 18.6983 98.5327 20.1808 98.1154 21.0153C97.2547 22.7449 95.4548 23.2856 94.7095 20.7993C94.2006 19.0959 94.32 16.8992 94.5745 15.5166C94.9034 13.7175 95.6945 12.0452 97.1197 12.0452C98.5057 12.0452 99.1888 13.5669 98.9916 17.2273ZM99.3434 27.2814C99.3238 29.9732 98.9033 32.3285 97.9992 33.0158C96.7098 33.9886 94.9762 33.2547 95.3353 31.2936C95.652 29.5559 97.1541 27.7838 99.3475 25.6173C99.3475 25.6173 99.3551 26.1115 99.3434 27.2814ZM122.603 17.2428C122.525 18.8611 122.166 20.1235 121.723 21.0153C120.861 22.7449 119.078 23.2815 118.317 20.7993C117.904 19.4437 117.884 17.1807 118.182 15.2932C118.483 13.3698 119.329 11.9184 120.726 12.0452C122.108 12.1769 122.754 13.9531 122.603 17.2428Z" fill="#231E1F"/>
</mask>
<g mask="url(#mask2_4_42)">
<path d="M65.7929 8.89296L68.1296 -0.453613H79.4439L81.0426 8.89296L77.1072 13.1973V18.9159L78.0296 26.9712H69.9128V20.2072L65.7929 8.89296Z" fill="#EA580B"/>
</g>
<mask id="mask3_4_42" style="mask-type:alpha" maskUnits="userSpaceOnUse" x="20" y="1" width="114" height="33">
<path d="M26.3197 1.19538C23.9954 2.16801 21.4395 4.91292 20.6328 8.36544C19.6093 12.7361 23.8645 14.5818 24.2121 13.9796C24.6212 13.2654 23.4472 13.0257 23.2075 10.7594C22.899 7.82884 24.258 4.55463 25.9728 3.11793C26.2927 2.85531 26.2772 3.22593 26.2772 3.90912C26.2772 5.14124 26.2085 16.1649 26.2085 18.4663C26.2085 21.5818 26.0808 22.5628 25.8452 23.5314C25.6136 24.5165 25.239 25.1808 25.5212 25.4394C25.8411 25.7249 27.2 25.045 27.9879 23.9454C28.9304 22.6282 29.2626 21.0451 29.3239 19.327C29.3934 17.2579 29.3894 13.9682 29.3934 12.0954C29.3934 10.3732 29.4204 5.33839 29.3664 2.30717C29.3509 1.566 27.2892 0.789538 26.3197 1.19538ZM133.482 17.5509C133.15 17.5509 132.992 17.8986 132.865 18.4819C132.425 20.5166 131.962 20.9756 131.363 20.9756C130.695 20.9756 130.096 19.9685 129.938 17.9526C129.819 16.3694 129.838 13.4503 129.992 10.5467C130.023 9.95198 129.861 9.36206 128.262 8.77876C127.571 8.53166 126.571 8.16104 126.073 9.36537C124.664 12.7598 124.116 15.4622 123.984 16.5552C123.981 16.6124 123.911 16.6207 123.899 16.4897C123.819 15.6127 123.633 14.0181 123.61 10.6662C123.602 10.0182 123.467 9.45778 122.741 9.00211C122.274 8.70918 120.853 8.18393 120.339 8.80576C119.899 9.31542 119.386 10.6825 118.849 12.3041C118.416 13.6246 118.115 14.5205 118.115 14.5205C118.115 14.5205 118.118 10.9599 118.127 9.60836C118.127 9.09863 117.779 8.92928 117.675 8.89817C117.2 8.75913 116.261 8.53166 115.868 8.53166C115.378 8.53166 115.262 8.80576 115.262 9.20338C115.262 9.25326 115.181 13.8864 115.181 17.1263V17.5819C114.914 19.0726 114.034 21.0959 113.08 21.0959C112.126 21.0959 111.675 20.2499 111.675 16.3891C111.675 14.1376 111.744 13.1575 111.775 11.5277C111.794 10.5893 111.833 9.86767 111.829 9.70163C111.821 9.20338 110.952 8.94812 110.551 8.85565C110.146 8.75913 109.794 8.72802 109.517 8.73949C109.13 8.76318 108.856 9.01764 108.856 9.37353V9.9135C108.358 9.12643 107.551 8.5775 107.011 8.41956C105.567 7.99089 104.056 8.37292 102.917 9.96339C102.014 11.2307 101.469 12.6625 101.257 14.7209C101.099 16.2271 101.149 17.7521 101.431 19.0415C101.091 20.497 100.465 21.0959 99.7824 21.0959C98.7859 21.0959 98.0684 19.4735 98.1494 16.6664C98.2075 14.8216 98.574 13.5281 98.979 11.6512C99.1532 10.8519 99.0101 10.4355 98.659 10.0297C98.3384 9.66641 97.6511 9.47741 96.6669 9.70488C95.9674 9.87098 94.9602 10.0485 94.0447 10.1843C94.0447 10.1843 94.0987 9.96339 94.1454 9.574C94.381 7.53105 92.1606 7.69716 91.4537 8.35003C91.0291 8.73949 90.7395 9.19927 90.6315 10.0256C90.458 11.3387 91.5273 11.9564 91.5273 11.9564C91.1764 13.5624 90.3189 15.6626 89.4271 17.1803C88.9518 17.9951 88.5885 18.594 88.1181 19.2346C88.1138 18.999 88.1138 18.7593 88.1138 18.5244C88.1057 15.1455 88.1482 12.4857 88.1678 11.5277C88.1875 10.5893 88.2259 9.88651 88.2259 9.7204C88.2178 9.35715 88.0058 9.21479 87.5575 9.04464C87.164 8.89081 86.6968 8.77876 86.2141 8.73949C85.6079 8.69365 85.2373 9.01764 85.2487 9.39973V9.9135C84.7472 9.12643 83.9397 8.5775 83.407 8.41956C81.9589 7.99089 80.4495 8.37292 79.3106 9.96339C78.4107 11.2307 77.8159 13.0028 77.6457 14.7013C77.4919 16.2926 77.5189 17.6359 77.7349 18.7715C77.5033 19.9063 76.8431 21.0959 76.0945 21.0959C75.1405 21.0959 74.5957 20.2499 74.5957 16.3891C74.5957 14.1376 74.6652 13.1575 74.7004 11.5277C74.7192 10.5893 74.7544 9.86767 74.7503 9.70163C74.7462 9.20338 73.8782 8.94812 73.4724 8.85565C73.0518 8.75581 72.6845 8.72476 72.4063 8.73949C72.0357 8.77054 71.7772 9.09863 71.7772 9.34978V9.9135C71.2757 9.12643 70.4682 8.5775 69.9314 8.41956C68.4874 7.99089 66.9894 8.38114 65.8424 9.96339C65.0938 10.9951 64.4875 12.1413 64.175 14.6825C64.0899 15.4163 64.0474 16.1028 64.0514 16.7442C63.7536 18.5662 62.4373 20.6672 61.3638 20.6672C60.7306 20.6672 60.1285 19.4465 60.1285 16.8407C60.1285 13.3735 60.3444 8.43103 60.3829 7.95242C60.3829 7.95242 61.7418 7.92867 62.0085 7.92542C62.6843 7.92131 63.302 7.93689 64.202 7.89026C64.6577 7.86737 65.0938 6.24168 64.6225 6.03717C64.4139 5.94795 62.9159 5.86695 62.3211 5.85554C61.8196 5.84406 60.4328 5.74018 60.4328 5.74018C60.4328 5.74018 60.5572 2.46186 60.5842 2.11824C60.6071 1.82451 60.2365 1.6781 60.0205 1.58888C59.4985 1.36553 59.0313 1.26085 58.4832 1.14874C57.715 0.990862 57.3713 1.14549 57.3059 1.78935C57.2052 2.76701 57.1512 5.63218 57.1512 5.63218C56.5875 5.63218 54.6764 5.51928 54.1159 5.51928C53.5956 5.51928 53.0311 7.75931 53.7535 7.78631C54.5839 7.81742 56.0239 7.84853 56.9811 7.87467C56.9811 7.87467 56.9385 12.8989 56.9385 14.4468V14.9254C56.41 17.6703 54.5602 19.1536 54.5602 19.1536C54.9578 17.3349 54.147 15.9718 52.6801 14.8216C52.1393 14.3928 51.0741 13.5853 49.8804 12.7091C49.8804 12.7091 50.5717 12.026 51.1853 10.6589C51.6182 9.68935 51.6378 8.57418 50.5717 8.3304C48.8111 7.92542 47.363 9.2189 46.9269 10.6007C46.5947 11.6668 46.769 12.462 47.4285 13.2842L47.579 13.47C47.1855 14.2341 46.6373 15.265 46.1775 16.0643C44.8922 18.2848 43.9227 20.038 43.1929 20.038C42.6063 20.038 42.6137 18.2578 42.6137 16.5895C42.6137 15.1529 42.7217 12.9872 42.8068 10.748C42.8338 10.01 42.4631 9.58541 41.8422 9.20338C41.4633 8.9718 40.6599 8.51614 40.1928 8.51614C39.4982 8.51614 37.4823 8.60855 35.5793 14.1106C35.3395 14.806 34.8683 16.0684 34.8683 16.0684L34.9109 9.45042C34.9109 9.29579 34.8299 9.14938 34.6409 9.04464C34.3202 8.87117 33.4594 8.51614 32.7027 8.51614C32.3353 8.51614 32.1537 8.68629 32.1537 9.02175L32.0923 19.3696C32.0923 20.1575 32.1112 21.0762 32.1889 21.478C32.2658 21.8796 32.3934 22.2077 32.5481 22.4041C32.7027 22.5939 32.8835 22.7403 33.1772 22.8058C33.4513 22.8639 34.9608 23.0529 35.0385 22.4777C35.135 21.7864 35.1383 21.0419 35.9303 18.2504C37.1656 13.9101 38.7725 11.7944 39.5292 11.0409C39.6642 10.91 39.8148 10.9018 39.8066 11.1186C39.7722 12.0717 39.6602 14.4468 39.5832 16.466C39.3787 21.8756 40.3588 22.8753 41.7685 22.8753C42.8419 22.8753 44.3555 21.806 45.9811 19.1037C46.9965 17.4159 47.9774 15.7673 48.6876 14.5745C49.1744 15.0293 49.7298 15.5202 50.2821 16.0455C51.5682 17.2613 51.9888 18.4198 51.7073 19.5169C51.4946 20.3579 50.6879 21.2227 49.2553 20.3816C48.8381 20.1379 48.6606 19.9489 48.24 19.6707C48.0159 19.5201 47.6681 19.4776 47.4636 19.6322C46.9228 20.038 46.6176 20.551 46.4401 21.1883C46.274 21.8101 46.8958 22.1341 47.5405 22.4196C48.0927 22.6708 49.2823 22.8909 50.0424 22.9179C53.0041 23.0185 55.375 21.4894 57.0236 17.5509C57.3214 20.9527 58.5756 22.8794 60.7576 22.8794C62.2204 22.8794 63.6841 20.9911 64.3255 19.134C64.5064 19.8908 64.7804 20.5469 65.1322 21.1074C66.816 23.7712 70.082 23.2001 71.7191 20.9371C72.2288 20.2344 72.3065 19.9832 72.3065 19.9832C72.5454 22.1194 74.2676 22.8712 75.2526 22.8712C76.3604 22.8712 77.496 22.3468 78.2945 20.5469C78.3911 20.7441 78.4917 20.9298 78.6078 21.1074C80.2875 23.7712 83.5535 23.2001 85.1947 20.9371C85.2684 20.8251 85.3379 20.7326 85.3951 20.6435L85.4459 22.049C85.4459 22.049 84.5075 22.9064 83.9324 23.4349C81.4034 25.756 79.48 27.5167 79.3377 29.5629C79.1601 32.1768 81.2758 33.1463 82.8819 33.2731C84.5811 33.4089 86.0407 32.4705 86.9357 31.15C87.7236 29.9915 88.2415 27.5011 88.2031 25.0377C88.1875 24.0493 88.1638 22.7985 88.1408 21.451C89.0327 20.4242 90.0365 19.1184 90.9561 17.5902C91.9632 15.9293 93.0366 13.6933 93.5848 11.9523C93.5848 11.9523 94.5232 11.9605 95.5197 11.8983C95.8404 11.8787 95.9329 11.945 95.8707 12.1765C95.8011 12.4579 94.6124 17.0493 95.6972 20.1075C96.4426 22.1996 98.114 22.8753 99.1105 22.8753C100.272 22.8753 101.385 21.995 101.979 20.6901C102.053 20.8333 102.126 20.9756 102.211 21.1074C103.891 23.7712 107.145 23.1961 108.798 20.9371C109.173 20.4242 109.381 19.9832 109.381 19.9832C109.737 22.1963 111.459 22.8794 112.443 22.8794C113.474 22.8794 114.447 22.4589 115.239 20.5895C115.27 21.4125 115.32 22.0842 115.405 22.2961C115.454 22.4278 115.748 22.5898 115.957 22.6708C116.899 23.0185 117.857 22.8524 118.208 22.7788C118.455 22.7289 118.648 22.5358 118.671 22.0261C118.74 20.6901 118.698 18.4468 119.103 16.7753C119.787 13.9797 120.42 12.8948 120.721 12.3581C120.888 12.0562 121.08 12.0063 121.084 12.323C121.096 12.9676 121.131 14.86 121.397 17.4085C121.587 19.2771 121.845 20.3849 122.046 20.7367C122.609 21.7365 123.312 21.7831 123.88 21.7831C124.243 21.7831 125 21.6825 124.934 21.0451C124.899 20.7367 124.957 18.8174 125.625 16.061C126.065 14.2578 126.795 12.6322 127.057 12.0374C127.158 11.8173 127.201 11.9875 127.201 12.0219C127.142 13.2613 127.019 17.3193 127.521 19.5357C128.209 22.544 130.188 22.8794 130.88 22.8794C132.351 22.8794 133.56 21.7594 133.965 18.81C134.066 18.099 133.918 17.5509 133.482 17.5509ZM71.7461 15.7288C71.6651 17.2882 71.3599 18.594 70.8739 19.5397C69.9854 21.2578 68.237 21.7986 67.468 19.3237C66.9084 17.5361 67.0974 15.0955 67.333 13.7784C67.6725 11.8246 68.534 10.4428 69.8774 10.5696C71.2519 10.7054 71.9236 12.4775 71.7461 15.7288ZM85.2177 15.7517C85.1408 17.2227 84.7588 18.7052 84.3415 19.5397C83.4808 21.2693 81.6809 21.8101 80.9356 19.3237C80.4267 17.6203 80.5461 15.4236 80.8006 14.041C81.1295 12.2419 81.9206 10.5696 83.3458 10.5696C84.7318 10.5696 85.4149 12.0913 85.2177 15.7517ZM85.5695 25.8059C85.5499 28.4976 85.1294 30.853 84.2253 31.5402C82.9359 32.513 81.2023 31.7791 81.5614 29.8181C81.8781 28.0803 83.3802 26.3082 85.5736 24.1418C85.5736 24.1418 85.5812 24.6359 85.5695 25.8059ZM108.829 15.7673C108.752 17.3855 108.392 18.648 107.949 19.5397C107.087 21.2693 105.304 21.8059 104.543 19.3237C104.13 17.9681 104.11 15.7051 104.408 13.8176C104.709 11.8942 105.555 10.4428 106.952 10.5696C108.334 10.7013 108.98 12.4775 108.829 15.7673Z" fill="#231E1F"/>
</mask>
<g mask="url(#mask3_4_42)">
<rect x="77.2916" y="5.26489" width="65.795" height="31.1143" fill="black"/>
</g>
</svg>
